<svg width="14" height="7" viewBox="0 0 14 7" fill="none" xmlns="http://www.w3.org/2000/svg">
<path d="M12.9986 7C12.7651 7.00045 12.5387 6.91917 12.3589 6.77024L7.00098 2.29503L1.63309 6.61041C1.53084 6.69339 1.41319 6.75536 1.2869 6.79275C1.16061 6.83014 1.02817 6.84222 0.897192 6.8283C0.766215 6.81437 0.639283 6.77472 0.523692 6.71161C0.408101 6.64851 0.306129 6.56319 0.223639 6.46058C0.140605 6.3584 0.0785984 6.24083 0.0411814 6.11462C0.00376431 5.98842 -0.00832479 5.85607 0.00560895 5.72518C0.0195427 5.59429 0.0592244 5.46744 0.122374 5.35193C0.185523 5.23642 0.270894 5.13452 0.37358 5.05208L6.37123 0.227245C6.55009 0.0803203 6.77445 0 7.00598 0C7.23751 0 7.46187 0.0803203 7.64073 0.227245L13.6384 5.2219C13.7396 5.30576 13.8233 5.40875 13.8846 5.52497C13.9459 5.6412 13.9837 5.76837 13.9958 5.8992C14.0079 6.03004 13.994 6.16197 13.9549 6.28744C13.9159 6.41291 13.8525 6.52945 13.7683 6.63039C13.6753 6.74498 13.558 6.83756 13.425 6.90147C13.2919 6.96537 13.1463 6.99902 12.9986 7Z" fill="#f4714d"/>
</svg>
