<svg width="10" height="20" viewBox="0 0 10 20" fill="none" xmlns="http://www.w3.org/2000/svg">
<path d="M2.86102e-06 18.5695C-0.000648499 18.2358 0.115478 17.9125 0.328222 17.6555L6.72138 10.0014L0.556551 2.33298C0.438012 2.18691 0.34949 2.01884 0.296073 1.83843C0.242657 1.65801 0.225398 1.46881 0.24529 1.2817C0.265182 1.09459 0.321831 0.913262 0.411983 0.748132C0.502134 0.583001 0.624011 0.437327 0.770607 0.319484C0.916576 0.200865 1.08453 0.112283 1.26483 0.0588305C1.44512 0.00537758 1.63419 -0.0118926 1.82117 0.00801278C2.00816 0.0279181 2.18936 0.0846063 2.35438 0.174819C2.5194 0.265032 2.66498 0.386991 2.78274 0.533686L9.67536 9.10176C9.88526 9.35727 10 9.67778 10 10.0085C10 10.3393 9.88526 10.6598 9.67536 10.9153L2.54014 19.4834C2.42034 19.628 2.27321 19.7475 2.10718 19.8351C1.94115 19.9228 1.75947 19.9767 1.57257 19.994C1.38566 20.0112 1.19718 19.9914 1.01794 19.9356C0.838698 19.8799 0.67221 19.7893 0.528009 19.669C0.364308 19.5362 0.232058 19.3686 0.140763 19.1785C0.049468 18.9884 0.00139713 18.7804 2.86102e-06 18.5695Z" fill="white"/>
</svg>
