<svg width="21" height="21" viewBox="0 0 21 21" fill="none" xmlns="http://www.w3.org/2000/svg">
<path d="M0.792969 18.8618L7.1333 12.5215C6.14941 11.2495 5.61719 9.69434 5.61719 8.05859C5.61719 6.10059 6.38135 4.26465 7.76318 2.88037C9.14502 1.49609 10.9858 0.734375 12.9414 0.734375C14.897 0.734375 16.7378 1.49854 18.1196 2.88037C19.5039 4.26221 20.2656 6.10059 20.2656 8.05859C20.2656 10.0142 19.5015 11.855 18.1196 13.2368C16.7378 14.6211 14.8994 15.3828 12.9414 15.3828C11.3057 15.3828 9.75293 14.8506 8.48096 13.8691L2.14062 20.207C2.12203 20.2256 2.09996 20.2404 2.07566 20.2505C2.05136 20.2605 2.02532 20.2657 1.99902 20.2657C1.97272 20.2657 1.94668 20.2605 1.92238 20.2505C1.89809 20.2404 1.87601 20.2256 1.85742 20.207L0.792969 19.145C0.774364 19.1264 0.759607 19.1044 0.74954 19.0801C0.739471 19.0558 0.734289 19.0297 0.734289 19.0034C0.734289 18.9771 0.739471 18.9511 0.74954 18.9268C0.759607 18.9025 0.774364 18.8804 0.792969 18.8618ZM9.07422 11.9258C10.1094 12.9585 11.4814 13.5273 12.9414 13.5273C14.4014 13.5273 15.7734 12.9585 16.8086 11.9258C17.8413 10.8906 18.4102 9.51856 18.4102 8.05859C18.4102 6.59863 17.8413 5.22412 16.8086 4.19141C15.7734 3.15869 14.4014 2.58984 12.9414 2.58984C11.4814 2.58984 10.1069 3.15625 9.07422 4.19141C8.0415 5.22656 7.47266 6.59863 7.47266 8.05859C7.47266 9.51856 8.0415 10.8931 9.07422 11.9258Z" fill="#EDEEF1"/>
</svg>
